# xmcd
#
# Track frame offsets:
#	150
#	29127
#	59592
#	88595
#	110795
#	138349
#	175770
#	211962
#	240237
#	262614
#
# Disc length: 4134 seconds
#
# Revision: 0
# Processed by: cddbd v1.5.2PL0 Copyright (c) Steve Scherf et al.
# Submitted via: audiograbber 1.82.02
#
DISCID=8710240a
DTITLE=Randy Brecker with Michael Brecker - Some Skunk Funk
DYEAR=2005
DGENRE=Jazz
TTITLE0=Some Skunk Funk
TTITLE1=Sponge
TTITLE2=Shanghigh
TTITLE3=Wayne Out
TTITLE4=And Then She Wept
TTITLE5=Strap-Hangin
TTITLE6=Let it Go
TTITLE7=Freefall
TTITLE8=Levitate
TTITLE9=Song for Barry
EXTD=YEAR: 2005
EXTT0=
EXTT1=
EXTT2=
EXTT3=
EXTT4=
EXTT5=
EXTT6=
EXTT7=
EXTT8=
EXTT9=
PLAYORDER=
